# xmcd CD database file
#
# Track frame offsets:
#	150
#	18922
#	30031
#	46731
#	47504
#	61151
#	72230
#	75431
#	89440
#	102797
#	103749
#	122035
#	122989
#	138287
#	138887
#	153105
#
# Disc length: 2270 seconds
#
# Revision: 0
# Processed by: cddbd v1.5.2PL0 Copyright (c) Steve Scherf et al.
# Submitted via: CDex 1.51
#
DISCID=bc08dc10
DTITLE=Chris Golden - Merry Christmas
DYEAR=2008
DGENRE=Country
TTITLE0=Chris Golden - Deck The Halls
TTITLE1=Chris Golden - Winter Wonderland
TTITLE2=Chris Golden - Christmas Again
TTITLE3=Luke 2 - 7
TTITLE4=Chris Golden - Away In The Manger
TTITLE5=Chris Golden - Joy To The World
TTITLE6=Luke 2
TTITLE7=Chris Golden - Silent Night
TTITLE8=Chris Golden - Hark The Herald Angels Sing
TTITLE9=Matthew 2/9-10
TTITLE10=Chris Golden - Beautiful Star Of Bethlehem
TTITLE11=Matthew 2/11
TTITLE12=Chris Golden - Little Drummer Boy
TTITLE13=Luke 2/17
TTITLE14=Chris Golden - Go Tell It On The Mountain
TTITLE15=Chris Golden - Auld Lang Syne
EXTD=YEAR: 2008
EXTT0=
EXTT1=
EXTT2=
EXTT3=
EXTT4=
EXTT5=
EXTT6=
EXTT7=
EXTT8=
EXTT9=
EXTT10=
EXTT11=
EXTT12=
EXTT13=
EXTT14=
EXTT15=
PLAYORDER=
